<svg width="123" height="46" viewBox="0 0 123 46" fill="none" xmlns="http://www.w3.org/2000/svg">
<path d="M27.184 -2.86102e-06L19.984 34.08C19.6 35.84 19.088 37.44 18.448 38.88C17.84 40.352 17.056 41.6 16.096 42.624C15.136 43.68 13.984 44.496 12.64 45.072C11.328 45.648 9.776 45.936 7.984 45.936C6.608 45.936 5.44 45.76 4.48 45.408C3.552 45.088 2.8 44.624 2.224 44.016C1.616 43.44 1.184 42.752 0.928 41.952C0.672 41.184 0.544 40.352 0.544 39.456C0.544 38.56 0.672 37.696 0.928 36.864C1.184 36.064 1.584 35.36 2.128 34.752C2.64 34.144 3.312 33.664 4.144 33.312C5.008 32.928 6.032 32.736 7.216 32.736C7.536 32.736 7.904 32.768 8.32 32.832C8.768 32.896 9.184 33.04 9.568 33.264C9.952 33.456 10.272 33.776 10.528 34.224C10.816 34.64 10.96 35.216 10.96 35.952C10.96 36.208 10.912 36.496 10.816 36.816C10.72 37.168 10.624 37.52 10.528 37.872C10.208 37.36 9.76 36.944 9.184 36.624C8.64 36.336 8.144 36.192 7.696 36.192C7.12 36.192 6.592 36.32 6.112 36.576C5.664 36.832 5.28 37.152 4.96 37.536C4.64 37.92 4.384 38.352 4.192 38.832C4.032 39.312 3.952 39.776 3.952 40.224C3.952 41.28 4.336 42.176 5.104 42.912C5.872 43.648 6.768 44.016 7.792 44.016C8.24 44.016 8.752 43.904 9.328 43.68C9.936 43.488 10.528 43.152 11.104 42.672C11.712 42.192 12.256 41.536 12.736 40.704C13.248 39.904 13.632 38.88 13.888 37.632L21.28 2.784C18.464 3.424 16.272 4.704 14.704 6.624C13.168 8.544 12.4 10.8 12.4 13.392C12.4 14.64 12.528 15.52 12.784 16.032C13.04 16.544 13.296 16.912 13.552 17.136C11.952 17.136 10.688 16.816 9.76 16.176C8.864 15.504 8.416 14.352 8.416 12.72C8.416 11.024 8.912 9.408 9.904 7.872C10.928 6.336 12.24 4.992 13.84 3.84C15.44 2.656 17.232 1.728 19.216 1.056C21.232 0.351997 23.248 -2.86102e-06 25.264 -2.86102e-06H27.184ZM46.9326 12L43.4286 28.32C43.2686 28.96 43.1886 29.68 43.1886 30.48C43.1886 31.024 43.2846 31.52 43.4766 31.968C43.6686 32.416 44.0686 32.64 44.6766 32.64C45.4446 32.64 46.2126 32.176 46.9806 31.248C47.7806 30.32 48.5326 29.04 49.2366 27.408H51.0126C50.2446 29.424 49.4766 31.024 48.7086 32.208C47.9406 33.36 47.1886 34.24 46.4526 34.848C45.7486 35.456 45.0606 35.84 44.3886 36C43.7486 36.192 43.1726 36.288 42.6606 36.288C41.6046 36.288 40.7246 35.92 40.0206 35.184C39.3486 34.448 38.9486 33.248 38.8206 31.584C38.0846 32.896 37.0606 34.016 35.7486 34.944C34.4686 35.84 33.0606 36.288 31.5246 36.288C30.7566 36.288 30.0046 36.16 29.2686 35.904C28.5326 35.616 27.8766 35.168 27.3006 34.56C26.7246 33.92 26.2606 33.12 25.9086 32.16C25.5566 31.168 25.3806 29.968 25.3806 28.56C25.3806 27.472 25.4926 26.304 25.7166 25.056C25.9726 23.808 26.3246 22.56 26.7726 21.312C27.2206 20.064 27.7966 18.864 28.5006 17.712C29.2046 16.56 30.0046 15.552 30.9006 14.688C31.7966 13.792 32.8046 13.088 33.9246 12.576C35.0766 12.032 36.3246 11.76 37.6686 11.76C38.4366 11.76 39.2206 11.936 40.0206 12.288C40.8206 12.64 41.3486 13.312 41.6046 14.304L42.0846 12H46.9326ZM33.5406 32.64C34.0526 32.64 34.5806 32.512 35.1246 32.256C35.6686 31.968 36.1806 31.6 36.6606 31.152C37.1726 30.672 37.6206 30.112 38.0046 29.472C38.3886 28.832 38.6606 28.144 38.8206 27.408L41.1246 16.512C41.0286 15.968 40.7886 15.488 40.4046 15.072C40.0206 14.624 39.4606 14.4 38.7246 14.4C37.4126 14.4 36.2446 14.88 35.2206 15.84C34.1966 16.8 33.3326 17.968 32.6286 19.344C31.9246 20.72 31.3966 22.192 31.0446 23.76C30.6926 25.328 30.5166 26.704 30.5166 27.888C30.5166 29.712 30.7886 30.96 31.3326 31.632C31.8766 32.304 32.6126 32.64 33.5406 32.64ZM76.5655 30.288C76.5655 30.96 76.6615 31.52 76.8535 31.968C77.0455 32.416 77.4295 32.64 78.0055 32.64C79.5095 32.64 81.0135 30.896 82.5175 27.408H84.2935C83.5255 29.424 82.7575 31.024 81.9895 32.208C81.2215 33.392 80.4695 34.288 79.7335 34.896C79.0295 35.472 78.3575 35.84 77.7175 36C77.1095 36.192 76.5655 36.288 76.0855 36.288C74.4215 36.288 73.2375 35.776 72.5335 34.752C71.8295 33.696 71.4775 32.4 71.4775 30.864C71.4775 29.808 71.5895 28.704 71.8135 27.552C72.0695 26.4 72.3415 25.264 72.6295 24.144C72.9175 23.024 73.1735 21.952 73.3975 20.928C73.6535 19.872 73.7815 18.912 73.7815 18.048C73.7815 17.248 73.6375 16.608 73.3495 16.128C73.0615 15.648 72.5015 15.408 71.6695 15.408C70.6455 15.408 69.7655 15.824 69.0295 16.656C68.3255 17.488 67.5895 18.784 66.8215 20.544L63.5095 36H58.6615L62.0695 19.968C62.1655 19.52 62.2295 19.12 62.2615 18.768C62.2935 18.416 62.3095 18.096 62.3095 17.808C62.3095 16.912 62.1335 16.288 61.7815 15.936C61.4295 15.584 60.9495 15.408 60.3415 15.408C59.3175 15.408 58.4375 15.84 57.7015 16.704C56.9975 17.536 56.2615 18.816 55.4935 20.544L52.1815 36H47.3815L52.4695 12H57.3175L56.6455 15.072C57.7655 13.632 58.8375 12.72 59.8615 12.336C60.8855 11.952 61.7975 11.76 62.5975 11.76C64.1975 11.76 65.3655 12.144 66.1015 12.912C66.8375 13.68 67.2855 14.64 67.4455 15.792C68.0215 14.896 68.5975 14.192 69.1735 13.68C69.7815 13.136 70.3575 12.72 70.9015 12.432C71.4775 12.144 72.0055 11.968 72.4855 11.904C72.9975 11.808 73.4775 11.76 73.9255 11.76C74.8855 11.76 75.6855 11.904 76.3255 12.192C76.9655 12.48 77.4775 12.88 77.8615 13.392C78.2455 13.872 78.5015 14.448 78.6295 15.12C78.7895 15.76 78.8695 16.448 78.8695 17.184C78.8695 18.24 78.7415 19.344 78.4855 20.496C78.2615 21.648 78.0055 22.784 77.7175 23.904C77.4295 25.024 77.1575 26.128 76.9015 27.216C76.6775 28.304 76.5655 29.328 76.5655 30.288ZM99.3828 16.704C99.3828 19.424 98.3108 21.632 96.1668 23.328C94.0548 24.992 91.1268 26.016 87.3828 26.4C87.3508 26.656 87.3348 26.912 87.3348 27.168C87.3348 27.392 87.3348 27.632 87.3348 27.888C87.3348 29.52 87.6388 30.72 88.2468 31.488C88.8868 32.256 89.9748 32.64 91.5108 32.64C93.0468 32.64 94.5668 32.24 96.0708 31.44C97.5748 30.64 98.9508 29.296 100.199 27.408H101.735C101.095 28.592 100.327 29.728 99.4308 30.816C98.5348 31.872 97.5428 32.816 96.4548 33.648C95.3668 34.448 94.1988 35.088 92.9508 35.568C91.7348 36.048 90.4868 36.288 89.2068 36.288C88.2788 36.288 87.3828 36.144 86.5188 35.856C85.6868 35.568 84.9348 35.12 84.2628 34.512C83.6228 33.904 83.0948 33.12 82.6788 32.16C82.2948 31.168 82.1028 29.984 82.1028 28.608C82.1028 27.712 82.1988 26.672 82.3908 25.488C82.5828 24.304 82.8708 23.088 83.2548 21.84C83.6708 20.592 84.1988 19.36 84.8388 18.144C85.5108 16.928 86.2948 15.856 87.1908 14.928C88.0868 13.968 89.1108 13.2 90.2628 12.624C91.4468 12.048 92.7748 11.76 94.2468 11.76C94.9188 11.76 95.5588 11.84 96.1668 12C96.7748 12.128 97.3188 12.384 97.7988 12.768C98.2788 13.12 98.6628 13.616 98.9508 14.256C99.2388 14.896 99.3828 15.712 99.3828 16.704ZM94.6788 14.112C93.7828 14.112 92.9508 14.432 92.1828 15.072C91.4148 15.68 90.7268 16.48 90.1188 17.472C89.5428 18.464 89.0308 19.584 88.5828 20.832C88.1668 22.048 87.8468 23.28 87.6228 24.528C90.3108 24.112 92.4548 23.168 94.0547 21.696C95.6548 20.224 96.4548 18.4 96.4548 16.224C96.4548 15.68 96.3428 15.2 96.1188 14.784C95.9268 14.336 95.4468 14.112 94.6788 14.112ZM112.159 10.512C112.319 13.584 112.463 16.08 112.591 18C112.751 19.92 112.879 21.488 112.975 22.704C113.103 23.92 113.199 24.912 113.263 25.68C113.327 26.416 113.359 27.184 113.359 27.984C113.359 29.552 113.103 30.864 112.591 31.92C112.111 32.976 111.487 33.84 110.719 34.512C109.951 35.152 109.119 35.616 108.223 35.904C107.327 36.16 106.479 36.288 105.679 36.288C104.463 36.288 103.407 36.112 102.511 35.76C101.647 35.376 100.927 34.896 100.351 34.32C99.7746 33.744 99.3586 33.088 99.1026 32.352C98.8146 31.616 98.6706 30.88 98.6706 30.144C98.6706 29.024 98.9266 28.08 99.4386 27.312C99.9826 26.544 100.575 26 101.215 25.68C102.559 23.28 103.695 20.912 104.623 18.576C105.551 16.208 106.383 13.84 107.119 11.472L112.159 10.512ZM108.319 28.032C108.319 27.36 108.287 26.736 108.223 26.16C108.191 25.584 108.127 24.864 108.031 24C107.935 23.136 107.823 22.048 107.695 20.736C107.567 19.424 107.439 17.728 107.311 15.648C106.863 17.44 106.319 19.152 105.679 20.784C105.071 22.416 104.335 24.096 103.471 25.824C103.663 25.984 103.823 26.192 103.951 26.448C104.079 26.704 104.143 27.024 104.143 27.408C104.143 28.176 103.919 28.768 103.471 29.184C103.055 29.6 102.623 29.808 102.175 29.808C101.663 29.808 101.279 29.584 101.023 29.136C101.023 30.256 101.279 31.136 101.791 31.776C102.303 32.384 103.087 32.688 104.143 32.688C105.359 32.688 106.351 32.336 107.119 31.632C107.919 30.928 108.319 29.728 108.319 28.032Z" fill="#935E92"/>
<path d="M115.69 33.072C115.69 32.208 115.994 31.456 116.602 30.816C117.21 30.176 117.962 29.856 118.858 29.856C119.722 29.856 120.474 30.176 121.114 30.816C121.754 31.456 122.074 32.208 122.074 33.072C122.074 33.968 121.754 34.72 121.114 35.328C120.474 35.936 119.722 36.24 118.858 36.24C117.962 36.24 117.21 35.936 116.602 35.328C115.994 34.72 115.69 33.968 115.69 33.072Z" fill="#FF895F"/>
</svg>
